<svg aria-hidden="true" style="position: absolute; width: 0; height: 0; overflow: hidden;" version="1.1" xmlns="http://www.w3.org/2000/svg" xmlns:xlink="http://www.w3.org/1999/xlink">
<defs>
<symbol id="icon-figma" viewBox="0 0 32 32">
<path fill="#0acf83" style="fill: var(--color1, #0acf83)" d="M10.667 32c2.944 0 5.333-2.389 5.333-5.333v-5.333h-5.333c-2.944 0-5.333 2.389-5.333 5.333s2.389 5.333 5.333 5.333z"></path>
<path fill="#a259ff" style="fill: var(--color2, #a259ff)" d="M5.333 16c0-2.944 2.389-5.333 5.333-5.333h5.333v10.667h-5.333c-2.944 0-5.333-2.389-5.333-5.333z"></path>
<path fill="#f24e1e" style="fill: var(--color3, #f24e1e)" d="M5.333 5.333c0-2.944 2.389-5.333 5.333-5.333h5.333v10.667h-5.333c-2.944 0-5.333-2.389-5.333-5.333z"></path>
<path fill="#ff7262" style="fill: var(--color4, #ff7262)" d="M16 0h5.333c2.944 0 5.333 2.389 5.333 5.333s-2.389 5.333-5.333 5.333h-5.333v-10.667z"></path>
<path fill="#1abcfe" style="fill: var(--color5, #1abcfe)" d="M26.667 16c0 2.944-2.389 5.333-5.333 5.333s-5.333-2.389-5.333-5.333 2.389-5.333 5.333-5.333 5.333 2.389 5.333 5.333z"></path>
</symbol>
<symbol id="icon-icons8-css3" viewBox="0 0 32 32">
<path fill="#000" style="fill: var(--color6, #000)" d="M4.795 4.784l1.751 19.847c0.073 0.825 0.647 1.52 1.443 1.747l7.095 2.027c0.599 0.171 1.233 0.171 1.831 0l7.095-2.027c0.796-0.227 1.37-0.922 1.443-1.747l1.751-19.847c0.069-0.78-0.545-1.451-1.327-1.451h-19.755c-0.783 0-1.397 0.671-1.328 1.451z"></path>
<path fill="#35c1f1" style="fill: var(--color7, #35c1f1)" d="M16 5.333v21.267l6.584-1.881c0.531-0.152 0.914-0.616 0.962-1.166l1.524-17.495c0.034-0.39-0.273-0.725-0.664-0.725h-8.406z"></path>
<path fill="#fff" style="fill: var(--color8, #fff)" d="M22.067 8.667h-6.067v2.667h3.267l-0.2 2.667h-3.067v2.667h2.933l-0.2 3-2.733 0.933v2.8l5.267-1.733 0.467-7.667 0.333-5.333z"></path>
<path fill="#d6e0e9" style="fill: var(--color9, #d6e0e9)" d="M16 8.667v2.667h-5.933l-0.2-2.667h6.133zM12.933 14l0.133 2.667h2.933v-2.667h-3.067zM13.2 18h-2.667l0.2 3.667 5.267 1.733v-2.8l-2.733-0.933-0.067-1.667z"></path>
<path fill="#000" style="fill: var(--color6, #000)" opacity="0.05" d="M22.067 8.667l-0.333 5.333-0.467 7.667-5.267 1.733-5.267-1.733-0.2-3.667h2.667l0.067 1.667 2.733 0.933 2.733-0.933 0.2-3h-5.867l-0.133-2.667h6.133l0.2-2.667h-9.2l-0.2-2.667h12.2zM22.776 8h-13.628l0.054 0.717 0.2 2.667 0.046 0.617h9.1l-0.1 1.333h-6.215l0.035 0.7 0.133 2.667 0.032 0.633h-2.603l0.039 0.703 0.2 3.667 0.025 0.455 5.907 1.945 5.905-1.943 0.027-0.451 0.467-7.667 0.333-5.332 0.044-0.709zM13.841 17.333h4.38l-0.123 1.846-2.097 0.716-2.085-0.712-0.049-1.21-0.025-0.64z"></path>
<path fill="#000" style="fill: var(--color6, #000)" opacity="0.07" d="M22.067 8.667l-0.333 5.333-0.467 7.667-5.267 1.733-5.267-1.733-0.2-3.667h2.667l0.067 1.667 2.733 0.933 2.733-0.933 0.2-3h-5.867l-0.133-2.667h6.133l0.2-2.667h-9.2l-0.2-2.667h12.2zM22.421 8.333h-12.914l0.027 0.358 0.2 2.667 0.023 0.309h9.15l-0.15 2h-6.175l0.017 0.35 0.133 2.667 0.016 0.317h5.828l-0.161 2.423-2.416 0.825-2.409-0.823-0.057-1.439-0.013-0.32h-3.339l0.019 0.351 0.2 3.667 0.013 0.227 0.216 0.071 5.371 1.767 0.104-0.034 5.481-1.804 0.014-0.226 0.467-7.667 0.333-5.333 0.022-0.354z"></path>
</symbol>
<symbol id="icon-icons8-html-5" viewBox="0 0 32 32">
<path fill="#e65100" style="fill: var(--color10, #e65100)" d="M27.333 3.333h-22.667l2 22.667 9.333 2.667 9.333-2.667 2-22.667z"></path>
<path fill="#ff6d00" style="fill: var(--color11, #ff6d00)" d="M16 5.333v21.267l7.467-2.133 1.667-19.133z"></path>
<path fill="#fff" style="fill: var(--color8, #fff)" d="M16 16.667v-2.667h5.733l-0.467 7.667-5.267 1.733v-2.8l2.733-0.933 0.2-3h-2.933zM21.933 11.333l0.2-2.667h-6.133v2.667h5.933z"></path>
<path fill="#eee" style="fill: var(--color12, #eee)" d="M16 20.6v2.8l-5.267-1.733-0.267-3.667h2.667l0.133 1.667 2.733 0.933zM12.733 11.333h3.267v-2.667h-6.067l0.467 8h5.6v-2.667h-3.067l-0.2-2.667z"></path>
</symbol>
<symbol id="icon-icons8-javascript" viewBox="0 0 32 32">
<path fill="#ffd600" style="fill: var(--color13, #ffd600)" d="M4 28v-24h24v24h-24z"></path>
<path fill="#000001" style="fill: var(--color14, #000001)" d="M19.692 21.965c0.461 0.749 0.963 1.467 2.025 1.467 0.892 0 1.36-0.443 1.36-1.057 0-0.734-0.484-0.995-1.465-1.422l-0.538-0.229c-1.553-0.659-2.585-1.484-2.585-3.227 0-1.607 1.23-2.829 3.152-2.829 1.369 0 2.352 0.474 3.061 1.715l-1.676 1.071c-0.369-0.659-0.767-0.918-1.385-0.918-0.631 0-1.030 0.398-1.030 0.918 0 0.643 0.4 0.903 1.323 1.301l0.538 0.229c1.83 0.779 2.862 1.575 2.862 3.365 0 1.928-1.523 2.985-3.567 2.985-1.999 0-3.135-1.003-3.767-2.245l1.692-1.123zM11.968 22.019c0.337 0.604 0.85 1.069 1.587 1.069 0.705 0 1.111-0.279 1.111-1.362v-7.059h2.222v7.401c0 2.245-1.302 3.266-3.203 3.266-1.718 0-2.958-1.164-3.463-2.245l1.746-1.069z"></path>
</symbol>
</defs>
</svg>
