<svg aria-hidden="true" style="position: absolute; width: 0; height: 0; overflow: hidden;" version="1.1" xmlns="http://www.w3.org/2000/svg" xmlns:xlink="http://www.w3.org/1999/xlink">
<defs>
<symbol id="icon-angular" viewBox="0 0 32 32" fill="#DD0031">
<path d="M22.283 23.615h-12.565l-1.605 3.888 7.888 4.497 7.888-4.497-1.605-3.888zM19.589 0l10.443 22.473 1.085-17.141-11.528-5.332zM12.411 0l-11.528 5.332 1.085 17.141 10.443-22.473zM11.871 18.573h8.264l-4.135-10.045-4.129 10.045z"></path>
</symbol>
<symbol id="icon-chatgpt-1" viewBox="0 0 32 32">
<path fill="#000" style="fill: var(--color1, #000)" d="M18.646 32h-18.646v-32h32v32h-13.354zM5.458 3.76c-0.007 0.005-0.014 0.011-0.021 0.015-0.374 0.23-0.71 0.506-1.016 0.82-0.090 0.093-0.172 0.194-0.258 0.291-0.172 0.192-0.319 0.403-0.457 0.62-0.289 0.459-0.496 0.954-0.632 1.477-0.102 0.389-0.153 0.784-0.153 1.188 0.003 5.252 0.002 10.503 0.003 15.755 0 0.147 0.007 0.295 0.024 0.441 0.020 0.171 0.046 0.342 0.083 0.51 0.078 0.359 0.194 0.706 0.344 1.042 0.154 0.345 0.343 0.67 0.566 0.974 0.255 0.346 0.547 0.657 0.879 0.932 0.188 0.155 0.38 0.301 0.585 0.432 0.34 0.217 0.7 0.389 1.080 0.52 0.309 0.106 0.626 0.187 0.951 0.231 0.146 0.019 0.291 0.040 0.438 0.040 5.379 0.001 10.759 0.001 16.138 0 0.081 0 0.163 0.001 0.243-0.010 0.136-0.018 0.271-0.047 0.407-0.066 0.219-0.032 0.432-0.092 0.641-0.16 0.321-0.105 0.631-0.239 0.927-0.403 0.289-0.161 0.562-0.344 0.815-0.557 0.433-0.365 0.806-0.781 1.109-1.261 0.198-0.315 0.365-0.645 0.492-0.994 0.13-0.358 0.236-0.723 0.277-1.103 0.016-0.149 0.043-0.298 0.043-0.447 0.002-5.138 0.002-10.277 0.001-15.415-0-0.321 0.021-0.643-0.028-0.963-0.016-0.102-0.021-0.207-0.043-0.307-0.038-0.177-0.082-0.353-0.13-0.528-0.126-0.467-0.327-0.901-0.577-1.314-0.182-0.3-0.4-0.572-0.634-0.832-0.163-0.181-0.34-0.349-0.53-0.502-0.257-0.207-0.528-0.392-0.818-0.552-0.259-0.143-0.528-0.261-0.806-0.358-0.309-0.107-0.626-0.188-0.952-0.231-0.155-0.021-0.309-0.040-0.464-0.040-5.298-0-10.596-0-15.894-0.001-0.289-0-0.575 0.019-0.859 0.075-0.223 0.044-0.443 0.097-0.658 0.167-0.388 0.126-0.757 0.295-1.117 0.515z"></path>
<path fill="#10a37f" style="fill: var(--color2, #10a37f)" d="M5.463 3.756c0.354-0.216 0.723-0.385 1.111-0.511 0.215-0.070 0.435-0.123 0.658-0.167 0.285-0.056 0.57-0.075 0.859-0.075 5.298 0.001 10.596 0.001 15.894 0.001 0.156 0 0.31 0.019 0.464 0.040 0.326 0.044 0.643 0.124 0.952 0.231 0.278 0.097 0.547 0.215 0.806 0.358 0.29 0.16 0.561 0.345 0.818 0.552 0.19 0.153 0.367 0.321 0.53 0.502 0.234 0.259 0.452 0.532 0.634 0.832 0.25 0.413 0.451 0.847 0.577 1.314 0.047 0.175 0.091 0.351 0.13 0.528 0.022 0.101 0.027 0.205 0.043 0.307 0.049 0.32 0.028 0.642 0.028 0.963 0.001 5.138 0.001 10.277-0.001 15.415-0 0.149-0.027 0.298-0.043 0.447-0.041 0.381-0.147 0.745-0.277 1.103-0.127 0.349-0.294 0.679-0.492 0.994-0.302 0.48-0.676 0.897-1.109 1.261-0.253 0.213-0.526 0.396-0.815 0.557-0.296 0.165-0.606 0.298-0.927 0.403-0.209 0.068-0.422 0.128-0.641 0.16-0.136 0.020-0.271 0.049-0.407 0.066-0.080 0.010-0.162 0.010-0.243 0.010-5.379 0-10.759 0.001-16.138-0-0.147-0-0.292-0.020-0.438-0.040-0.326-0.043-0.642-0.124-0.951-0.231-0.38-0.131-0.741-0.304-1.080-0.52-0.205-0.131-0.397-0.277-0.585-0.432-0.332-0.274-0.625-0.585-0.879-0.932-0.224-0.304-0.412-0.628-0.566-0.974-0.15-0.336-0.266-0.683-0.344-1.042-0.036-0.168-0.063-0.339-0.083-0.51-0.017-0.146-0.024-0.294-0.024-0.441-0.001-5.252-0-10.503-0.003-15.755-0-0.404 0.051-0.799 0.153-1.188 0.137-0.524 0.344-1.018 0.632-1.477 0.137-0.218 0.284-0.428 0.457-0.62 0.087-0.096 0.168-0.198 0.258-0.291 0.306-0.314 0.643-0.59 1.016-0.82 0.007-0.005 0.014-0.010 0.026-0.019zM7.606 21.357c0.361 0.818 0.886 1.51 1.609 2.040 1.183 0.868 2.502 1.165 3.945 0.905 0.073-0.013 0.116 0.003 0.165 0.055 0.441 0.481 0.959 0.857 1.551 1.13 0.902 0.416 1.848 0.544 2.828 0.405 1.090-0.155 2.027-0.626 2.811-1.397 0.547-0.538 0.946-1.171 1.196-1.897 0.029-0.083 0.069-0.122 0.158-0.142 0.98-0.227 1.822-0.702 2.502-1.443 0.928-1.012 1.387-2.208 1.353-3.586-0.019-0.789-0.224-1.529-0.596-2.224-0.177-0.331-0.391-0.638-0.64-0.919-0.035-0.040-0.045-0.074-0.027-0.124 0.026-0.071 0.044-0.144 0.063-0.217 0.245-0.927 0.228-1.851-0.064-2.764-0.332-1.036-0.929-1.893-1.81-2.535-1.171-0.854-2.479-1.145-3.905-0.891-0.082 0.015-0.133 0.001-0.188-0.060-0.308-0.339-0.661-0.626-1.054-0.862-0.971-0.583-2.023-0.809-3.147-0.687-1.161 0.126-2.158 0.607-2.988 1.426-0.55 0.542-0.948 1.184-1.197 1.916-0.021 0.063-0.052 0.091-0.117 0.106-0.959 0.219-1.783 0.678-2.47 1.383-0.441 0.452-0.78 0.972-1.025 1.553-0.42 0.996-0.507 2.024-0.267 3.078 0.182 0.801 0.546 1.514 1.085 2.135 0.058 0.067 0.065 0.12 0.040 0.201-0.165 0.534-0.237 1.080-0.214 1.639 0.025 0.612 0.157 1.2 0.405 1.775z"></path>
<path fill="#fafbfb" style="fill: var(--color3, #fafbfb)" d="M7.603 21.351c-0.244-0.569-0.377-1.157-0.402-1.769-0.023-0.559 0.049-1.106 0.214-1.639 0.025-0.081 0.017-0.135-0.040-0.201-0.539-0.621-0.903-1.334-1.085-2.135-0.239-1.053-0.152-2.081 0.267-3.078 0.245-0.581 0.584-1.1 1.025-1.553 0.687-0.705 1.512-1.164 2.47-1.383 0.066-0.015 0.096-0.043 0.117-0.106 0.249-0.732 0.647-1.374 1.197-1.916 0.831-0.819 1.827-1.3 2.988-1.426 1.124-0.122 2.176 0.103 3.147 0.687 0.393 0.236 0.745 0.523 1.054 0.862 0.055 0.061 0.105 0.075 0.188 0.060 1.427-0.255 2.734 0.037 3.905 0.89 0.881 0.642 1.479 1.499 1.81 2.535 0.292 0.912 0.308 1.836 0.064 2.764-0.019 0.073-0.038 0.146-0.063 0.217-0.018 0.050-0.008 0.085 0.027 0.124 0.249 0.282 0.463 0.588 0.64 0.919 0.372 0.695 0.577 1.435 0.596 2.224 0.033 1.378-0.425 2.574-1.353 3.586-0.68 0.741-1.522 1.216-2.502 1.443-0.088 0.020-0.129 0.059-0.158 0.142-0.25 0.726-0.649 1.359-1.196 1.897-0.784 0.771-1.721 1.242-2.811 1.397-0.981 0.14-1.926 0.011-2.828-0.405-0.592-0.273-1.11-0.65-1.551-1.13-0.048-0.053-0.092-0.069-0.165-0.055-1.443 0.261-2.762-0.037-3.945-0.905-0.723-0.53-1.248-1.222-1.611-2.046zM19.103 12.365c-0.161-0.093-0.323-0.184-0.482-0.279-0.048-0.029-0.087-0.029-0.137-0.001-0.522 0.303-1.045 0.604-1.567 0.906-0.016 0.009-0.029 0.024-0.047 0.040 0.031 0.019 0.055 0.035 0.080 0.050 1.052 0.608 2.105 1.215 3.157 1.823 0.512 0.296 1.025 0.592 1.537 0.887 0.084 0.048 0.159 0.106 0.218 0.183 0.097 0.128 0.132 0.273 0.132 0.432-0.001 1.422-0.001 2.843-0.001 4.265 0 0.104-0 0.209 0 0.313 0 0.022 0.006 0.043 0.011 0.080 0.137-0.061 0.266-0.113 0.389-0.176 1.313-0.676 2.108-2.035 2.019-3.507-0.075-1.241-0.645-2.217-1.68-2.91-0.274-0.184-0.569-0.337-0.855-0.503-0.921-0.533-1.843-1.065-2.776-1.604zM16.847 22.497c-0.372 0.215-0.744 0.429-1.115 0.644-0.369 0.215-0.742 0.424-1.116 0.647 0.033 0.028 0.054 0.047 0.077 0.064 0.727 0.562 1.55 0.827 2.467 0.785 1.382-0.063 2.617-0.901 3.195-2.16 0.226-0.492 0.339-1.010 0.339-1.551 0.001-1.48 0-2.959 0-4.439 0-0.038-0.003-0.076 0.001-0.113 0.005-0.057-0.020-0.090-0.069-0.117-0.155-0.086-0.307-0.176-0.46-0.264-0.357-0.206-0.713-0.413-1.070-0.618-0.028-0.016-0.053-0.047-0.098-0.031v0.121c0 1.79 0 3.58-0 5.37 0 0.046 0.001 0.093-0.006 0.139-0.033 0.211-0.145 0.369-0.33 0.476-0.601 0.346-1.201 0.694-1.812 1.047zM15.437 19.85c-0.711 0.41-1.422 0.82-2.132 1.232-0.24 0.14-0.476 0.141-0.716 0-0.358-0.21-0.718-0.415-1.077-0.622-0.964-0.557-1.929-1.115-2.893-1.672-0.016-0.009-0.035-0.014-0.056-0.022-0.006 0.021-0.010 0.034-0.013 0.048-0.048 0.317-0.058 0.635-0.023 0.954 0.102 0.913 0.484 1.689 1.153 2.317 0.71 0.667 1.562 0.997 2.534 1.006 0.658 0.006 1.275-0.16 1.846-0.489 0.649-0.373 1.297-0.747 1.945-1.122 0.668-0.386 1.336-0.772 2.005-1.157 0.053-0.030 0.081-0.063 0.081-0.128-0.002-0.598-0.001-1.195-0.002-1.793 0-0.021-0.005-0.043-0.009-0.077 65.734-35.567 64.869-35.060 64.004-34.553l-66.646 36.079zM7.542 13.734c-0.109 0.543-0.103 1.085 0.034 1.622 0.258 1.014 0.835 1.795 1.737 2.327 0.73 0.43 1.466 0.849 2.199 1.273 0.58 0.335 1.16 0.67 1.74 1.007 0.050 0.029 0.091 0.045 0.151 0.011 0.521-0.304 1.044-0.605 1.566-0.907 0.016-0.009 0.029-0.023 0.048-0.040-0.032-0.020-0.056-0.036-0.081-0.050-0.369-0.213-0.739-0.426-1.108-0.639-1.191-0.687-2.381-1.376-3.573-2.061-0.247-0.142-0.366-0.348-0.365-0.634 0.002-1.506 0.001-3.012 0.001-4.518v-0.109c-0.016-0.004-0.022-0.007-0.027-0.006-0.022 0.007-0.044 0.014-0.066 0.022-0.515 0.205-0.961 0.511-1.338 0.918-0.469 0.505-0.771 1.097-0.92 1.785zM11.398 9.911c-0.141 0.401-0.207 0.815-0.207 1.239-0.001 1.503 0 3.006-0.002 4.509-0 0.072 0.022 0.116 0.087 0.152 0.509 0.291 1.016 0.585 1.523 0.878 0.024 0.014 0.050 0.025 0.083 0.042 0.002-0.036 0.005-0.061 0.005-0.087 0.002-0.397 0.004-0.795 0.004-1.192 0.001-0.838 0-1.677 0-2.515 0-0.577 0-1.155-0-1.732-0-0.14 0.033-0.27 0.111-0.387 0.066-0.099 0.158-0.167 0.26-0.226 1.319-0.761 2.638-1.523 3.956-2.285 0.016-0.009 0.030-0.022 0.051-0.038-0.038-0.031-0.068-0.057-0.101-0.081-0.963-0.714-2.034-0.952-3.193-0.647-1.26 0.331-2.113 1.139-2.578 2.372zM15.014 13.038c1.191-0.688 2.382-1.374 3.572-2.063 0.238-0.137 0.471-0.141 0.709-0.003 0.605 0.35 1.211 0.699 1.816 1.049 0.718 0.415 1.436 0.83 2.155 1.245 0.017 0.010 0.035 0.017 0.063 0.029 0.007-0.034 0.013-0.062 0.017-0.089 0.030-0.213 0.043-0.427 0.035-0.642-0.022-0.661-0.207-1.274-0.554-1.836-0.391-0.631-0.925-1.105-1.599-1.416-0.614-0.283-1.259-0.393-1.933-0.325-0.536 0.054-1.036 0.22-1.502 0.491-0.655 0.38-1.311 0.757-1.967 1.135-0.648 0.374-1.296 0.748-1.945 1.121-0.053 0.030-0.082 0.063-0.082 0.128 0.002 0.598 0.001 1.195 0.002 1.793 0 0.021 0.006 0.042 0.011 0.077 0.404-0.233 0.798-0.46 1.202-0.694zM16.888 17.959c0.377-0.218 0.753-0.436 1.131-0.652 0.047-0.027 0.072-0.055 0.071-0.114-0.002-0.777-0.002-1.555-0.001-2.332 0-0.050-0.016-0.078-0.059-0.103-0.674-0.387-1.347-0.776-2.019-1.166-0.050-0.029-0.086-0.027-0.135 0.001 1.912-1.013 1.252-0.626 0.592-0.241l-2.61 1.407c-0.044 0.025-0.059 0.054-0.059 0.103 0.001 0.777 0.001 1.555-0 2.332-0 0.054 0.020 0.083 0.065 0.109 0.669 0.385 1.337 0.77 2.004 1.158 0.059 0.034 0.102 0.030 0.158-0.003 0.282-0.166 0.567-0.329 0.862-0.499z"></path>
<path fill="#11a480" style="fill: var(--color4, #11a480)" d="M19.109 12.368c0.927 0.536 1.849 1.068 2.771 1.601 0.286 0.166 0.581 0.319 0.855 0.503 1.035 0.693 1.604 1.669 1.68 2.91 0.089 1.473-0.705 2.831-2.019 3.507-0.123 0.063-0.252 0.114-0.389 0.176-0.005-0.037-0.011-0.058-0.011-0.080-0.001-0.104-0-0.209-0-0.313 0-1.422-0.001-2.843 0.001-4.265 0-0.159-0.035-0.304-0.132-0.432-0.059-0.078-0.134-0.135-0.218-0.183-0.513-0.295-1.025-0.592-1.537-0.887-1.052-0.608-2.105-1.215-3.157-1.823-0.025-0.014-0.049-0.030-0.080-0.050 0.019-0.016 0.031-0.030 0.047-0.040 0.522-0.302 1.045-0.603 1.567-0.906 0.049-0.029 0.088-0.028 0.137 0.001 0.16 0.095 0.321 0.186 0.488 0.282z"></path>
<path fill="#11a480" style="fill: var(--color4, #11a480)" d="M16.853 22.493c0.606-0.35 1.206-0.697 1.806-1.044 0.185-0.107 0.297-0.264 0.33-0.476 0.007-0.046 0.006-0.093 0.006-0.139 0-1.79 0-3.58 0-5.37v-0.121c0.045-0.016 0.070 0.015 0.098 0.031 0.357 0.205 0.714 0.412 1.070 0.618 0.153 0.089 0.306 0.178 0.46 0.264 0.049 0.027 0.074 0.060 0.069 0.117-0.003 0.037-0.001 0.075-0.001 0.113 0 1.48 0 2.959-0 4.439-0 0.542-0.113 1.059-0.339 1.551-0.578 1.259-1.813 2.098-3.195 2.16-0.917 0.041-1.74-0.223-2.467-0.785-0.023-0.018-0.044-0.037-0.077-0.064 0.374-0.223 0.746-0.433 1.116-0.647 0.371-0.216 0.744-0.43 1.121-0.647z"></path>
<path fill="#11a380" style="fill: var(--color5, #11a380)" d="M15.443 19.847c0.879-0.508 1.752-1.012 2.636-1.522 0.004 0.035 0.009 0.056 0.009 0.077 0 0.598-0.001 1.195 0.002 1.793 0 0.066-0.028 0.098-0.081 0.128-0.669 0.385-1.336 0.771-2.005 1.157-0.648 0.374-1.296 0.749-1.945 1.122-0.571 0.328-1.188 0.495-1.846 0.489-0.972-0.009-1.824-0.34-2.534-1.006-0.669-0.628-1.051-1.404-1.153-2.317-0.036-0.319-0.025-0.637 0.023-0.954 0.002-0.014 0.007-0.027 0.013-0.048 0.022 0.008 0.040 0.013 0.056 0.022 0.965 0.557 1.929 1.114 2.893 1.672 0.359 0.207 0.719 0.413 1.077 0.622 0.24 0.141 0.476 0.139 0.716-0 0.71-0.412 1.421-0.821 2.138-1.235z"></path>
<path fill="#11a380" style="fill: var(--color5, #11a380)" d="M7.543 13.726c0.147-0.68 0.449-1.273 0.918-1.778 0.377-0.406 0.823-0.712 1.338-0.918 0.021-0.009 0.043-0.016 0.066-0.022 0.005-0.001 0.011 0.002 0.027 0.006v0.109c0 1.506 0.001 3.012-0.001 4.518-0 0.286 0.118 0.492 0.365 0.634 1.192 0.686 2.382 1.374 3.574 2.061 0.369 0.213 0.739 0.426 1.108 0.64 0.025 0.014 0.049 0.030 0.081 0.050-0.020 0.016-0.032 0.031-0.048 0.040-0.522 0.302-1.045 0.603-1.566 0.907-0.059 0.035-0.101 0.019-0.151-0.011-0.58-0.336-1.16-0.671-1.74-1.007-0.733-0.424-1.47-0.843-2.199-1.273-0.902-0.532-1.479-1.313-1.737-2.327-0.137-0.537-0.143-1.079-0.033-1.629z"></path>
<path fill="#11a37f" style="fill: var(--color6, #11a37f)" d="M11.4 9.904c0.463-1.227 1.316-2.034 2.576-2.365 1.159-0.305 2.23-0.068 3.193 0.647 0.032 0.024 0.062 0.050 0.101 0.081-0.021 0.016-0.035 0.029-0.051 0.038-1.319 0.762-2.637 1.524-3.956 2.285-0.102 0.059-0.194 0.127-0.26 0.226-0.078 0.117-0.111 0.247-0.111 0.387 0.001 0.577 0 1.155 0 1.732 0 0.838 0 1.677-0 2.515-0 0.397-0.002 0.795-0.004 1.192-0 0.025-0.003 0.050-0.005 0.087-0.033-0.017-0.059-0.028-0.083-0.042-0.508-0.293-1.014-0.587-1.523-0.878-0.064-0.037-0.087-0.080-0.087-0.152 0.002-1.503 0.001-3.006 0.002-4.509 0-0.424 0.066-0.838 0.21-1.245z"></path>
<path fill="#11a380" style="fill: var(--color5, #11a380)" d="M15.008 13.041c-0.399 0.23-0.793 0.457-1.197 0.69-0.005-0.034-0.011-0.056-0.011-0.077-0.001-0.598 0-1.195-0.002-1.793-0-0.065 0.029-0.098 0.082-0.128 0.649-0.373 1.297-0.747 1.945-1.121 0.656-0.378 1.312-0.755 1.967-1.135 0.466-0.271 0.966-0.437 1.502-0.491 0.673-0.068 1.319 0.042 1.933 0.325 0.674 0.311 1.208 0.784 1.599 1.416 0.348 0.562 0.532 1.175 0.554 1.836 0.007 0.215-0.005 0.429-0.035 0.642-0.004 0.028-0.010 0.055-0.017 0.089-0.027-0.013-0.046-0.019-0.063-0.029-0.718-0.415-1.437-0.83-2.155-1.245-0.605-0.35-1.211-0.698-1.816-1.049-0.238-0.138-0.471-0.134-0.709 0.003-1.19 0.689-2.381 1.376-3.577 2.066z"></path>
<path fill="#11a37f" style="fill: var(--color6, #11a37f)" d="M16.882 17.962c-0.289 0.167-0.574 0.329-0.856 0.496-0.056 0.033-0.099 0.037-0.158 0.003-0.667-0.388-1.335-0.773-2.004-1.158-0.045-0.026-0.065-0.055-0.065-0.109 0.002-0.777 0.002-1.555 0-2.332-0-0.049 0.015-0.078 0.059-0.103 3.271-1.793 3.93-2.179 4.588-2.567l-2.57 1.401c0.049-0.028 0.085-0.030 0.135-0.001 0.672 0.39 1.345 0.779 2.019 1.166 0.043 0.025 0.059 0.054 0.059 0.103-0.001 0.777-0.002 1.555 0 2.332 0 0.059-0.024 0.087-0.071 0.114-0.378 0.216-0.754 0.434-1.136 0.655z"></path>
</symbol>
<symbol id="icon-css" viewBox="0 0 32 32" fill="#663399">
<path d="M0 0v26.88c0 2.828 2.292 5.12 5.12 5.12v0h21.76c2.828 0 5.12-2.292 5.12-5.12v0-21.76c0-2.828-2.292-5.12-5.12-5.12v0zM19.008 17.44c2.080 0 3.040 1.44 3.072 3.52h-2.144c0.032-0.384-0.064-0.8-0.192-1.12-0.128-0.256-0.384-0.352-0.736-0.352-0.608 0-0.928 0.352-0.928 1.12-0.032 0.768 0.384 1.184 1.024 1.44 0.96 0.384 2.144 0.992 2.56 1.728q0.576 0.864 0.576 2.208c0 2.144-1.216 3.456-3.328 3.456-2.208 0-3.2-1.376-3.232-3.584h2.24c0 1.056 0.352 1.568 1.056 1.568 0.352 0 0.608-0.096 0.736-0.32 0.256-0.416 0.32-1.568-0.064-2.016-0.416-0.544-1.216-0.8-1.76-1.088q-1.104-0.528-1.632-1.248c-0.32-0.48-0.48-1.184-0.48-2.048 0-1.92 1.248-3.296 3.232-3.264zM26.208 17.44c2.112 0 3.072 1.44 3.104 3.52h-2.144c0-0.384-0.064-0.8-0.224-1.12-0.128-0.256-0.352-0.352-0.704-0.352-0.64 0-0.96 0.352-0.96 1.12s0.384 1.184 1.056 1.44c0.928 0.384 2.144 0.992 2.56 1.728 0.352 0.576 0.544 1.312 0.544 2.208 0.032 2.144-1.184 3.456-3.296 3.456-2.24 0-3.232-1.408-3.264-3.584h2.24c0 0.992 0.352 1.568 1.056 1.568 0.352 0 0.608-0.096 0.736-0.32 0.288-0.416 0.352-1.568-0.064-2.016-0.384-0.544-1.184-0.8-1.76-1.088-0.736-0.352-1.28-0.768-1.6-1.248s-0.48-1.184-0.48-2.048c-0.032-1.92 1.216-3.296 3.2-3.264zM11.5 17.464c0.948-0.008 1.892 0.264 2.452 0.84 0.576 0.576 0.896 1.504 0.864 2.656h-2.368c0.032-0.608-0.128-1.056-0.576-1.28-0.416-0.192-1.024-0.064-1.184 0.32-0.16 0.352-0.256 0.768-0.224 1.152v4.672c0 0.992 0.352 1.504 1.024 1.504 0.011 0.001 0.025 0.001 0.038 0.001 0.285 0 0.538-0.138 0.696-0.351l0.002-0.002c0.224-0.32 0.256-0.736 0.224-1.12h2.368c0.128 2.176-1.312 3.616-3.424 3.584-2.048 0-3.328-1.152-3.296-3.296v-5.376c0-1.088 0.32-1.92 0.928-2.464 0.576-0.544 1.528-0.832 2.476-0.84z"></path>
</symbol>
<symbol id="icon-figma" viewBox="0 0 32 32" fill="#F24E1E">
<path d="M21.136 11.975h-6.117v-11.975h6.117c3.301 0 5.987 2.685 5.987 5.987s-2.685 5.988-5.987 5.988zM16.98 10.013h4.156c2.22 0 4.025-1.807 4.025-4.025s-1.807-4.025-4.025-4.025h-4.156v8.051zM16.98 11.975h-6.116c-3.301 0-5.987-2.685-5.987-5.987s2.685-5.988 5.987-5.988h6.117v11.975zM10.864 1.961c-2.22 0-4.025 1.807-4.025 4.025s1.805 4.027 4.025 4.027h4.156v-8.052h-4.156zM16.98 21.987h-6.116c-3.301 0-5.987-2.685-5.987-5.987s2.685-5.987 5.987-5.987h6.117v11.973zM10.864 11.975c-2.22 0-4.025 1.807-4.025 4.025s1.807 4.025 4.025 4.025h4.156v-8.051h-4.156zM10.896 32c-3.319 0-6.020-2.685-6.020-5.987s2.685-5.987 5.987-5.987h6.117v5.921c0 3.337-2.729 6.052-6.084 6.052zM10.864 21.987c-2.222 0.003-4.022 1.803-4.025 4.025v0c0 2.22 1.82 4.025 4.059 4.025 2.273 0 4.124-1.835 4.124-4.091v-3.96h-4.157zM21.136 21.987h-0.131c-3.301 0-5.987-2.685-5.987-5.987s2.685-5.987 5.987-5.987h0.131c3.301 0 5.987 2.685 5.987 5.987s-2.685 5.987-5.987 5.987zM21.007 11.975c-2.22 0-4.025 1.807-4.025 4.025s1.807 4.025 4.025 4.025h0.131c2.22 0 4.025-1.807 4.025-4.025s-1.807-4.025-4.025-4.025h-0.131z"></path>
</symbol>
<symbol id="icon-github" viewBox="0 0 32 32">
<path d="M16 0.396c-8.84 0-16 7.164-16 16 0 7.071 4.584 13.067 10.94 15.18 0.8 0.151 1.093-0.344 1.093-0.769 0-0.38-0.013-1.387-0.020-2.72-4.451 0.965-5.389-2.147-5.389-2.147-0.728-1.847-1.78-2.34-1.78-2.34-1.449-0.992 0.112-0.972 0.112-0.972 1.607 0.112 2.451 1.648 2.451 1.648 1.427 2.447 3.745 1.74 4.66 1.331 0.144-1.035 0.556-1.74 1.013-2.14-3.553-0.4-7.288-1.776-7.288-7.907 0-1.747 0.62-3.173 1.647-4.293-0.18-0.404-0.72-2.031 0.14-4.235 0 0 1.34-0.429 4.4 1.64 1.28-0.356 2.64-0.532 4-0.54 1.36 0.008 2.72 0.184 4 0.54 3.040-2.069 4.38-1.64 4.38-1.64 0.86 2.204 0.32 3.831 0.16 4.235 1.020 1.12 1.64 2.547 1.64 4.293 0 6.147-3.74 7.5-7.3 7.893 0.56 0.48 1.080 1.461 1.080 2.96 0 2.141-0.020 3.861-0.020 4.381 0 0.42 0.28 0.92 1.1 0.76 6.401-2.099 10.981-8.099 10.981-15.159 0-8.836-7.164-16-16-16z"></path>
</symbol>
<symbol id="icon-html5" viewBox="0 0 32 32" fill="#E34F26">
<path d="M2 0h28l-2.547 28.751-11.484 3.249-11.419-3.251-2.551-28.749zM11.375 13l-0.309-3.624 13.412 0.004 0.307-3.496-17.568-0.004 0.931 10.68h12.168l-0.435 4.568-3.88 1.072-3.94-1.080-0.251-2.813h-3.479l0.44 5.561 7.229 1.933 7.172-1.924 0.992-10.876h-12.789z"></path>
</symbol>
<symbol id="icon-javascript" viewBox="0 0 32 32" fill="#F7DF1E">
<path d="M0 0h32v32h-32v-32zM29.379 24.368c-0.233-1.46-1.184-2.687-4.004-3.831-0.981-0.46-2.072-0.78-2.396-1.52-0.121-0.44-0.14-0.68-0.061-0.94 0.2-0.861 1.22-1.12 2.020-0.88 0.52 0.16 1 0.56 1.301 1.2 1.379-0.901 1.379-0.901 2.34-1.5-0.36-0.56-0.539-0.801-0.781-1.040-0.84-0.94-1.959-1.42-3.779-1.379l-0.94 0.119c-0.901 0.22-1.76 0.7-2.28 1.34-1.52 1.721-1.081 4.721 0.759 5.961 1.82 1.36 4.481 1.659 4.821 2.94 0.32 1.56-1.16 2.060-2.621 1.88-1.081-0.24-1.68-0.781-2.34-1.781l-2.44 1.401c0.28 0.64 0.6 0.919 1.080 1.479 2.32 2.341 8.12 2.221 9.161-1.339 0.039-0.12 0.32-0.94 0.099-2.2l0.061 0.089zM17.401 14.708h-2.997c0 2.584-0.012 5.152-0.012 7.74 0 1.643 0.084 3.151-0.184 3.615-0.44 0.919-1.573 0.801-2.088 0.64-0.528-0.261-0.796-0.621-1.107-1.14-0.084-0.14-0.147-0.261-0.169-0.261l-2.433 1.5c0.407 0.84 1 1.563 1.765 2.023 1.14 0.68 2.672 0.9 4.276 0.54 1.044-0.301 1.944-0.921 2.415-1.881 0.68-1.24 0.536-2.76 0.529-4.461 0.016-2.739 0-5.479 0-8.239l0.005-0.075z"></path>
</symbol>
<symbol id="icon-npm" viewBox="0 0 32 32" fill="#CB3837">
<path d="M2.351 0c-1.303 0-2.351 1.048-2.351 2.351v27.299c0 1.303 1.048 2.351 2.351 2.351h27.299c1.303 0 2.351-1.048 2.351-2.351v-27.299c0-1.303-1.048-2.351-2.351-2.351zM6.84 7.097l18.449 0.025-0.012 18.448h-4.619l0.013-13.843h-4.608l-0.011 13.832h-9.236z"></path>
</symbol>
<symbol id="icon-react" viewBox="0 0 32 32" fill="#61DAFB">
<path d="M18.973 16.005c0 1.646-1.334 2.981-2.98 2.981h-0c-1.647 0-2.981-1.335-2.981-2.981v0c0-1.646 1.334-2.981 2.98-2.981h0c1.647 0 2.981 1.335 2.981 2.981v0zM22.504 1.752c-1.795 0-4.143 1.28-6.517 3.496-2.373-2.204-4.723-3.469-6.516-3.469-0.547 0-1.044 0.124-1.475 0.371-1.833 1.057-2.244 4.352-1.297 8.487-4.059 1.253-6.699 3.257-6.699 5.369 0 2.12 2.653 4.129 6.724 5.373-0.939 4.151-0.52 7.451 1.317 8.507 0.427 0.249 0.92 0.367 1.469 0.367 1.793 0 4.143-1.28 6.517-3.499 2.373 2.205 4.723 3.471 6.516 3.471 0.547 0 1.044-0.12 1.475-0.367 1.832-1.056 2.244-4.351 1.297-8.487 4.044-1.243 6.684-3.251 6.684-5.365 0-2.12-2.653-4.129-6.724-5.376 0.939-4.147 0.52-7.449-1.317-8.507-0.424-0.245-0.917-0.369-1.456-0.371zM22.497 3.205v0.008c0.3 0 0.541 0.059 0.744 0.169 0.888 0.509 1.273 2.447 0.973 4.939-0.072 0.613-0.189 1.26-0.333 1.92-1.28-0.315-2.675-0.556-4.143-0.712-0.88-1.207-1.793-2.303-2.713-3.263 2.123-1.973 4.116-3.056 5.473-3.060zM9.471 3.232c1.349 0 3.352 1.077 5.48 3.040-0.915 0.96-1.827 2.049-2.693 3.256-1.476 0.156-2.872 0.397-4.151 0.717-0.149-0.653-0.26-1.285-0.339-1.893-0.307-2.491 0.072-4.427 0.952-4.943 0.253-0.12 0.533-0.169 0.751-0.176zM15.98 7.299c0.607 0.624 1.213 1.323 1.813 2.085-0.587-0.027-1.187-0.045-1.793-0.045-0.613 0-1.22 0.013-1.813 0.045 0.587-0.763 1.193-1.461 1.793-2.087zM16 10.8c0.987 0 1.969 0.045 2.936 0.124 0.541 0.776 1.069 1.604 1.577 2.48 0.496 0.853 0.947 1.72 1.357 2.595-0.411 0.873-0.861 1.747-1.351 2.6-0.507 0.88-1.031 1.717-1.573 2.493-0.971 0.084-1.955 0.131-2.947 0.131-0.987 0-1.969-0.047-2.936-0.124-0.541-0.776-1.069-1.605-1.577-2.48-0.496-0.853-0.947-1.72-1.357-2.595 0.404-0.876 0.861-1.751 1.351-2.605 0.507-0.88 1.031-1.715 1.573-2.491 0.971-0.085 1.955-0.131 2.947-0.131zM11.153 11.139c-0.32 0.503-0.64 1.017-0.939 1.547-0.3 0.52-0.58 1.043-0.847 1.565-0.353-0.875-0.653-1.747-0.901-2.596 0.853-0.2 1.753-0.377 2.687-0.515zM20.833 11.139c0.927 0.137 1.82 0.307 2.675 0.516-0.24 0.843-0.54 1.709-0.88 2.577-0.267-0.52-0.547-1.044-0.853-1.565-0.3-0.523-0.62-1.032-0.94-1.528zM24.917 12.039c0.645 0.2 1.259 0.423 1.833 0.664 2.309 0.987 3.803 2.277 3.803 3.301-0.007 1.024-1.5 2.32-3.809 3.3-0.56 0.24-1.173 0.456-1.807 0.657-0.373-1.277-0.861-2.608-1.467-3.973 0.6-1.356 1.080-2.68 1.447-3.952zM7.057 12.044c0.371 1.28 0.86 2.609 1.467 3.973-0.6 1.356-1.083 2.68-1.448 3.952-0.645-0.2-1.259-0.424-1.827-0.667-2.309-0.983-3.803-2.275-3.803-3.299s1.493-2.323 3.803-3.301c0.56-0.24 1.173-0.456 1.808-0.659zM22.628 17.751c0.353 0.876 0.653 1.749 0.901 2.597-0.853 0.209-1.755 0.387-2.688 0.52 0.32-0.5 0.64-1.016 0.94-1.544 0.3-0.52 0.58-1.051 0.848-1.573zM9.368 17.777c0.267 0.523 0.547 1.044 0.853 1.567 0.307 0.52 0.62 1.029 0.94 1.524-0.927-0.136-1.82-0.307-2.675-0.515 0.24-0.84 0.541-1.709 0.88-2.577zM23.893 21.76c0.149 0.657 0.267 1.291 0.339 1.897 0.307 2.491-0.072 4.427-0.952 4.944-0.196 0.12-0.451 0.171-0.751 0.171-1.349 0-3.352-1.076-5.48-3.040 0.915-0.96 1.827-2.048 2.693-3.253 1.476-0.157 2.872-0.4 4.151-0.72zM8.12 21.773c1.28 0.312 2.675 0.553 4.143 0.709 0.88 1.207 1.793 2.303 2.713 3.261-2.127 1.977-4.123 3.060-5.48 3.060-0.293-0.007-0.541-0.067-0.737-0.176-0.888-0.507-1.273-2.445-0.973-4.937 0.072-0.613 0.189-1.259 0.333-1.917zM14.2 22.627c0.587 0.027 1.187 0.045 1.793 0.045 0.613 0 1.22-0.013 1.813-0.045-0.587 0.763-1.193 1.46-1.793 2.087-0.607-0.627-1.213-1.324-1.813-2.087z"></path>
</symbol>
<symbol id="icon-sass" viewBox="0 0 32 32" fill="#CC6699">
<path d="M16 0c8.836 0 16 7.164 16 16s-7.164 16-16 16-16-7.164-16-16 7.164-16 16-16zM12.82 21.331c0.233 0.86 0.208 1.664-0.032 2.389l-0.087 0.24c-0.032 0.081-0.069 0.16-0.104 0.235-0.187 0.387-0.435 0.747-0.74 1.080-0.931 1.012-2.229 1.396-2.787 1.073-0.6-0.349-0.301-1.78 0.779-2.92 1.161-1.224 2.827-2.012 2.827-2.012v-0.004l0.144-0.081zM26.035 6.849c-0.723-2.844-5.436-3.779-9.896-2.193-2.652 0.943-5.525 2.424-7.591 4.356-2.457 2.295-2.848 4.295-2.687 5.131 0.569 2.948 4.609 4.876 6.271 6.307v0.008c-0.489 0.24-4.075 2.039-4.915 3.9-0.9 1.96 0.14 3.361 0.82 3.54 2.1 0.581 4.26-0.48 5.42-2.199 1.12-1.681 1.021-3.841 0.539-4.901 0.661-0.18 1.44-0.26 2.44-0.139 2.801 0.32 3.361 2.080 3.24 2.8-0.12 0.719-0.697 1.139-0.899 1.259-0.2 0.121-0.26 0.16-0.241 0.241 0.020 0.12 0.121 0.12 0.28 0.1 0.22-0.040 1.461-0.6 1.521-1.961 0.060-1.72-1.581-3.639-4.5-3.6-1.2 0.021-1.961 0.121-2.5 0.341-0.040-0.060-0.081-0.1-0.14-0.14-1.8-1.94-5.14-3.3-5-5.88 0.040-0.94 0.38-3.419 6.4-6.419 4.94-2.461 8.881-1.78 9.561-0.28 0.977 2.139-2.101 6.12-7.241 6.699-1.96 0.22-2.98-0.539-3.241-0.82-0.279-0.3-0.319-0.32-0.419-0.259-0.16 0.080-0.060 0.34 0 0.5 0.16 0.4 0.78 1.1 1.861 1.46 0.939 0.3 3.24 0.479 6-0.6 3.099-1.199 5.519-4.54 4.819-7.34l0.097 0.089z"></path>
</symbol>
<symbol id="icon-vercel" viewBox="0 0 32 32">
<path d="M16 2.144l16 27.712h-32z"></path>
</symbol>
</defs>
</svg>
